<?xml version="1.0" encoding="UTF-8" standalone="no"?>
<!-- Generator: Adobe Illustrator 18.0.0, SVG Export Plug-In . SVG Version: 6.00 Build 0)  -->

<svg
   xmlns:dc="http://purl.org/dc/elements/1.1/"
   xmlns:cc="http://creativecommons.org/ns#"
   xmlns:rdf="http://www.w3.org/1999/02/22-rdf-syntax-ns#"
   xmlns:svg="http://www.w3.org/2000/svg"
   xmlns="http://www.w3.org/2000/svg"
   xmlns:sodipodi="http://sodipodi.sourceforge.net/DTD/sodipodi-0.dtd"
   xmlns:inkscape="http://www.inkscape.org/namespaces/inkscape"
   version="1.1"
   id="Capa_1"
   x="0px"
   y="0px"
   viewBox="0 0 201.75167 206.21141"
   xml:space="preserve"
   inkscape:version="0.91 r13725"
   sodipodi:docname="cocktail.svg"
   width="201.75168"
   height="206.21141"><metadata
     id="metadata39"><rdf:RDF><cc:Work
         rdf:about=""><dc:format>image/svg+xml</dc:format><dc:type
           rdf:resource="http://purl.org/dc/dcmitype/StillImage" /><dc:title></dc:title></cc:Work></rdf:RDF></metadata><defs
     id="defs37" /><sodipodi:namedview
     pagecolor="#ffffff"
     bordercolor="#666666"
     borderopacity="1"
     objecttolerance="10"
     gridtolerance="10"
     guidetolerance="10"
     inkscape:pageopacity="0"
     inkscape:pageshadow="2"
     inkscape:window-width="3200"
     inkscape:window-height="1671"
     id="namedview35"
     showgrid="false"
     inkscape:zoom="2"
     inkscape:cx="80.978385"
     inkscape:cy="172.17103"
     inkscape:window-x="0"
     inkscape:window-y="55"
     inkscape:window-maximized="1"
     inkscape:current-layer="Capa_1"
     fit-margin-top="0"
     fit-margin-left="0"
     fit-margin-right="0"
     fit-margin-bottom="0" /><g
     id="g4194"
     transform="matrix(0.56147415,0,0,0.56147415,0.87629656,0.87635711)"
     style="stroke:#00df06;stroke-width:7.12410355;stroke-miterlimit:4;stroke-dasharray:none;stroke-opacity:1"><path
       sodipodi:nodetypes="cccccccsccsssccsssccscc"
       inkscape:connector-curvature="0"
       style="fill:none;stroke:#00df06;stroke-width:7.12410355;stroke-miterlimit:4;stroke-dasharray:none;stroke-opacity:1"
       id="path3"
       d="m 292.96593,81.459993 c 2.597,-2.949 3.225,-7.146 1.606,-10.727 -1.617,-3.58 -5.184,-5.882043 -9.112,-5.882 -91.154,10e-4 -182.308,8e-4 -273.462,10e-4 -3.93,0 -7.494,2.302 -9.113,5.882 -1.617,3.581 -0.988,7.777 1.607,10.727 l 125.1,142.095997 c 1.898,2.158 4.633,3.393 7.506,3.393 l 1.654,0 c 0.093,38.031 0.093,76.684 0.002,115.195 l -38.99,0 c -5.523,0 -10,4.478 -10,10 0,5.523 4.477,10 10,10 l 48.938,0 0.028,0 48.965,0 c 5.522,0 10,-4.477 10,-10 0,-5.522 -4.478,-10 -10,-10 l -38.94,0 c 0.091,-38.514 0.091,-77.164 -0.002,-115.195 l 1.607,0 c 2.873,0 5.60702,-1.23398 7.506,-3.391 41.70001,-47.36632 83.40003,-94.73264 125.1,-142.098997 z" /><g
       transform="translate(0.08193005,18.311995)"
       style="fill:none;stroke:#00df06;stroke-width:7.12410355;stroke-miterlimit:4;stroke-dasharray:none;stroke-opacity:1"
       id="g5" /><g
       transform="translate(0.08193005,18.311995)"
       style="fill:none;stroke:#00df06;stroke-width:7.12410355;stroke-miterlimit:4;stroke-dasharray:none;stroke-opacity:1"
       id="g7" /><g
       transform="translate(0.08193005,18.311995)"
       style="fill:none;stroke:#00df06;stroke-width:7.12410355;stroke-miterlimit:4;stroke-dasharray:none;stroke-opacity:1"
       id="g9" /><g
       transform="translate(0.08193005,18.311995)"
       style="fill:none;stroke:#00df06;stroke-width:7.12410355;stroke-miterlimit:4;stroke-dasharray:none;stroke-opacity:1"
       id="g11" /><g
       transform="translate(0.08193005,18.311995)"
       style="fill:none;stroke:#00df06;stroke-width:7.12410355;stroke-miterlimit:4;stroke-dasharray:none;stroke-opacity:1"
       id="g13" /><g
       transform="translate(0.08193005,18.311995)"
       style="fill:none;stroke:#00df06;stroke-width:7.12410355;stroke-miterlimit:4;stroke-dasharray:none;stroke-opacity:1"
       id="g15" /><g
       transform="translate(0.08193005,18.311995)"
       style="fill:none;stroke:#00df06;stroke-width:7.12410355;stroke-miterlimit:4;stroke-dasharray:none;stroke-opacity:1"
       id="g17" /><g
       transform="translate(0.08193005,18.311995)"
       style="fill:none;stroke:#00df06;stroke-width:7.12410355;stroke-miterlimit:4;stroke-dasharray:none;stroke-opacity:1"
       id="g19" /><g
       transform="translate(0.08193005,18.311995)"
       style="fill:none;stroke:#00df06;stroke-width:7.12410355;stroke-miterlimit:4;stroke-dasharray:none;stroke-opacity:1"
       id="g21" /><g
       transform="translate(0.08193005,18.311995)"
       style="fill:none;stroke:#00df06;stroke-width:7.12410355;stroke-miterlimit:4;stroke-dasharray:none;stroke-opacity:1"
       id="g23" /><g
       transform="translate(0.08193005,18.311995)"
       style="fill:none;stroke:#00df06;stroke-width:7.12410355;stroke-miterlimit:4;stroke-dasharray:none;stroke-opacity:1"
       id="g25" /><g
       transform="translate(0.08193005,18.311995)"
       style="fill:none;stroke:#00df06;stroke-width:7.12410355;stroke-miterlimit:4;stroke-dasharray:none;stroke-opacity:1"
       id="g27" /><g
       transform="translate(0.08193005,18.311995)"
       style="fill:none;stroke:#00df06;stroke-width:7.12410355;stroke-miterlimit:4;stroke-dasharray:none;stroke-opacity:1"
       id="g29" /><g
       transform="translate(0.08193005,18.311995)"
       style="fill:none;stroke:#00df06;stroke-width:7.12410355;stroke-miterlimit:4;stroke-dasharray:none;stroke-opacity:1"
       id="g31" /><g
       transform="translate(0.08193005,18.311995)"
       style="fill:none;stroke:#00df06;stroke-width:7.12410355;stroke-miterlimit:4;stroke-dasharray:none;stroke-opacity:1"
       id="g33" /><path
       transform="matrix(-0.99999464,0.00327347,-0.00327347,-0.99999464,0,0)"
       d="m -230.72158,-64.599625 a 61.638252,61.638252 0 0 1 -45.6851,59.5379803 61.638252,61.638252 0 0 1 -69.33345,-28.7188553 61.638252,61.638252 0 0 1 9.79547,-74.40395 61.638252,61.638252 0 0 1 74.40396,-9.79547"
       sodipodi:open="true"
       sodipodi:end="5.2359878"
       sodipodi:start="0"
       sodipodi:ry="61.638252"
       sodipodi:rx="61.638252"
       sodipodi:cy="-64.599625"
       sodipodi:cx="-292.35983"
       sodipodi:type="arc"
       id="path4173"
       style="fill:none;fill-opacity:0.49184151;stroke:#00df06;stroke-width:7.12410355;stroke-linecap:butt;stroke-linejoin:miter;stroke-miterlimit:4;stroke-dasharray:none;stroke-opacity:1" /></g></svg>