<?xml version="1.0" encoding="UTF-8" standalone="no"?>
<!-- Generator: Adobe Illustrator 16.0.0, SVG Export Plug-In . SVG Version: 6.00 Build 0)  -->

<svg
   xmlns:dc="http://purl.org/dc/elements/1.1/"
   xmlns:cc="http://creativecommons.org/ns#"
   xmlns:rdf="http://www.w3.org/1999/02/22-rdf-syntax-ns#"
   xmlns:svg="http://www.w3.org/2000/svg"
   xmlns="http://www.w3.org/2000/svg"
   xmlns:sodipodi="http://sodipodi.sourceforge.net/DTD/sodipodi-0.dtd"
   xmlns:inkscape="http://www.inkscape.org/namespaces/inkscape"
   version="1.1"
   id="Capa_1"
   x="0px"
   y="0px"
   width="203.15872"
   height="119.89429"
   viewBox="0 0 203.15872 119.89429"
   xml:space="preserve"
   inkscape:version="0.91 r13725"
   sodipodi:docname="crwon.svg"><metadata
     id="metadata41"><rdf:RDF><cc:Work
         rdf:about=""><dc:format>image/svg+xml</dc:format><dc:type
           rdf:resource="http://purl.org/dc/dcmitype/StillImage" /><dc:title></dc:title></cc:Work></rdf:RDF></metadata><defs
     id="defs39" /><sodipodi:namedview
     pagecolor="#ffffff"
     bordercolor="#666666"
     borderopacity="1"
     objecttolerance="10"
     gridtolerance="10"
     guidetolerance="10"
     inkscape:pageopacity="0"
     inkscape:pageshadow="2"
     inkscape:window-width="3200"
     inkscape:window-height="1671"
     id="namedview37"
     showgrid="false"
     inkscape:zoom="2.7727114"
     inkscape:cx="80.785927"
     inkscape:cy="108.71903"
     inkscape:window-x="0"
     inkscape:window-y="55"
     inkscape:window-maximized="1"
     inkscape:current-layer="Capa_1"
     fit-margin-top="0"
     fit-margin-left="0"
     fit-margin-right="0"
     fit-margin-bottom="0" /><g
     id="g3"
     style="fill:none;stroke:#00f318;stroke-width:4.75785351;stroke-miterlimit:4;stroke-dasharray:none;stroke-opacity:1"
     transform="matrix(0.84071529,0,0,0.84071529,2.0000001,-39.633062)"><path
       d="m 221.31,75.235 c -8.573,0 -15.551,6.984 -15.551,15.564 0,3.361 1.102,6.46 2.929,9.003 l -50.017,31.746 -34.574,-52.017 c 5.785,-2.268 9.901,-7.873 9.901,-14.452 0,-8.58 -6.979,-15.558 -15.558,-15.558 -8.579,0 -15.558,6.978 -15.558,15.558 0,6.591 4.123,12.184 9.91,14.452 L 77.874,132.065 28.178,99.823 c 1.827,-2.551 2.938,-5.65 2.938,-9.024 0,-8.58 -6.978,-15.564 -15.558,-15.564 C 6.978,75.235 0,82.219 0,90.799 c 0,8.58 6.979,15.558 15.558,15.558 1.641,0 3.172,-0.326 4.652,-0.792 l 37.984,60.282 c 0.861,1.358 2.35,2.192 3.967,2.192 l 112.574,0 c 1.607,0 3.093,-0.834 3.958,-2.192 l 37.983,-60.282 c 1.486,0.466 3.021,0.792 4.652,0.792 8.586,0 15.564,-6.979 15.564,-15.558 0,-8.579 -6.996,-15.564 -15.582,-15.564 z M 118.434,58.868 c 3.416,0 6.211,2.789 6.211,6.211 0,3.431 -2.789,6.205 -6.211,6.205 -3.422,0 -6.205,-2.774 -6.205,-6.205 -0.006,-3.416 2.783,-6.211 6.205,-6.211 z M 9.341,90.799 c 0,-3.422 2.783,-6.211 6.205,-6.211 3.422,0 6.205,2.789 6.205,6.211 0,3.431 -2.783,6.205 -6.205,6.205 C 12.124,97.003 9.341,94.23 9.341,90.799 Z M 221.31,97.01 c -3.422,0 -6.198,-2.773 -6.198,-6.205 0,-3.422 2.776,-6.211 6.198,-6.211 3.423,0 6.211,2.789 6.211,6.211 0,3.425 -2.788,6.205 -6.211,6.205 z m -41.527,85.687 c 0,2.575 -2.095,4.676 -4.677,4.676 l -113.35,0 c -2.582,0 -4.676,-2.101 -4.676,-4.676 0,-2.582 2.094,-4.677 4.676,-4.677 l 113.35,0 c 2.582,0 4.677,2.095 4.677,4.677 z"
       id="path5"
       style="fill:none;stroke:#00f318;stroke-width:4.75785351;stroke-miterlimit:4;stroke-dasharray:none;stroke-opacity:1"
       inkscape:connector-curvature="0"
       sodipodi:nodetypes="sscccssscccssssccssccsssssscsssscsssssssssssss" /></g><g
     id="g7"
     transform="matrix(0.84071529,0,0,0.84071529,2.0000001,-39.633062)"
     style="stroke-width:4.75785351;stroke-miterlimit:4;stroke-dasharray:none" /><g
     id="g9"
     transform="matrix(0.84071529,0,0,0.84071529,2.0000001,-39.633062)"
     style="stroke-width:4.75785351;stroke-miterlimit:4;stroke-dasharray:none" /><g
     id="g11"
     transform="matrix(0.84071529,0,0,0.84071529,2.0000001,-39.633062)"
     style="stroke-width:4.75785351;stroke-miterlimit:4;stroke-dasharray:none" /><g
     id="g13"
     transform="matrix(0.84071529,0,0,0.84071529,2.0000001,-39.633062)"
     style="stroke-width:4.75785351;stroke-miterlimit:4;stroke-dasharray:none" /><g
     id="g15"
     transform="matrix(0.84071529,0,0,0.84071529,2.0000001,-39.633062)"
     style="stroke-width:4.75785351;stroke-miterlimit:4;stroke-dasharray:none" /><g
     id="g17"
     transform="matrix(0.84071529,0,0,0.84071529,2.0000001,-39.633062)"
     style="stroke-width:4.75785351;stroke-miterlimit:4;stroke-dasharray:none" /><g
     id="g19"
     transform="matrix(0.84071529,0,0,0.84071529,2.0000001,-39.633062)"
     style="stroke-width:4.75785351;stroke-miterlimit:4;stroke-dasharray:none" /><g
     id="g21"
     transform="matrix(0.84071529,0,0,0.84071529,2.0000001,-39.633062)"
     style="stroke-width:4.75785351;stroke-miterlimit:4;stroke-dasharray:none" /><g
     id="g23"
     transform="matrix(0.84071529,0,0,0.84071529,2.0000001,-39.633062)"
     style="stroke-width:4.75785351;stroke-miterlimit:4;stroke-dasharray:none" /><g
     id="g25"
     transform="matrix(0.84071529,0,0,0.84071529,2.0000001,-39.633062)"
     style="stroke-width:4.75785351;stroke-miterlimit:4;stroke-dasharray:none" /><g
     id="g27"
     transform="matrix(0.84071529,0,0,0.84071529,2.0000001,-39.633062)"
     style="stroke-width:4.75785351;stroke-miterlimit:4;stroke-dasharray:none" /><g
     id="g29"
     transform="matrix(0.84071529,0,0,0.84071529,2.0000001,-39.633062)"
     style="stroke-width:4.75785351;stroke-miterlimit:4;stroke-dasharray:none" /><g
     id="g31"
     transform="matrix(0.84071529,0,0,0.84071529,2.0000001,-39.633062)"
     style="stroke-width:4.75785351;stroke-miterlimit:4;stroke-dasharray:none" /><g
     id="g33"
     transform="matrix(0.84071529,0,0,0.84071529,2.0000001,-39.633062)"
     style="stroke-width:4.75785351;stroke-miterlimit:4;stroke-dasharray:none" /><g
     id="g35"
     transform="matrix(0.84071529,0,0,0.84071529,2.0000001,-39.633062)"
     style="stroke-width:4.75785351;stroke-miterlimit:4;stroke-dasharray:none" /></svg>