<svg id="Capa_1" xmlns:rdf="http://www.w3.org/1999/02/22-rdf-syntax-ns#" xmlns="http://www.w3.org/2000/svg" xml:space="preserve" height="200.97" viewBox="0 0 200.98131 200.96905" width="200.98" version="1.1" y="0px" x="0px" xmlns:cc="http://creativecommons.org/ns#" xmlns:dc="http://purl.org/dc/elements/1.1/">
  <g id="g3"
  style="stroke:#2dff24; stroke-width:1.3243; fill:none"
  transform="matrix(3.0251 0 0 3.0158 1.7006 1.9969)">
  <path id="path5" style="stroke:#2dff24;stroke-width:1.3243;fill:none" d="m36.748 33.775c-1.5598 0.78259-2.6741 2.3709-4.0505 3.4847l-6.0495 5.6653c-0.09033 4.2763-0.18067 8.5527-0.271 12.829-1.0633 0.98998-2.0042 2.1505-3.1402 3.039-1.8895 0.12924-1.6146-2.3503-2.139-3.6118-0.54-1.646-0.623-3.551-1.479-5.02-1.9118 0.06351-5.5514 4.516-6.76 0.68-0.25006-2.0685 1.6724-3.1608 2.46-4.782-0.738-1.303-2.632-1.063-3.927-1.575-1.561-0.526-3.4062-0.511-4.7568-1.445-0.7259-1.429 1.1917-2.147 1.8763-3.141 1.0416-1.64 3.0605-1.043 4.6845-1.144 2.9888-0.0679 6.0202 0.13505 8.9826-0.1 3.1374-3.2056 6.217-6.5166 9.2151-9.8478 0.08461-1.7658-2.1945-1.5566-3.3742-2.1799-9.252-3.043-18.546-5.981-27.771-9.09-0.73017-1.643 1.3252-2.435 2.1496-3.528 1.0935-1.155 2.8729-0.427 4.299-0.631h39.06c3.779-3.9036 7.368-8.0099 11.272-11.78 2.161-1.3769 5.621-2.5585 7.712-0.5135 1.112 2.3981 0.336 5.7241-1.508 7.5767-3.735 3.5938-7.504 7.1538-11.217 10.768-0.258 4.539-0.042 9.131-0.113 13.691-0.04474 9.4328 0.08987 18.874-0.068 28.301 0.0031 1.5995-1.724 2.3765-2.593 3.554-1.8024 1.1906-1.9764-1.6218-2.468-2.7342-3.065-9.296-6.096-18.603-9.183-27.892-0.171-0.301-0.476-0.575-0.844-0.573z"/></g></svg>
